<svg width="120" height="39" viewBox="0 0 120 39" fill="none" xmlns="http://www.w3.org/2000/svg">
<path fill-rule="evenodd" clip-rule="evenodd" d="M15.2855 1C19.3333 1.02578 23.2334 2.54234 26.258 5.26658C29.5347 8.22078 31.3911 12.4646 31.35 16.9071C31.35 21.3324 29.64 25.6615 26.3055 29.7646C23.5077 33.1894 20.102 35.8157 17.8457 37.5522C17.29 37.9658 16.834 38.3266 16.4207 38.6537C16.2629 38.7857 16.0927 38.9017 15.9125 39C15.7338 38.8938 15.5638 38.7731 15.4043 38.6392C15.1983 38.4731 14.9917 38.3057 14.7787 38.1331C14.3876 37.8161 13.9748 37.4816 13.5042 37.1048C8.78275 33.3337 0 26.3109 0 17.5035C0 11.2841 2.73125 7.39747 5.02075 5.23291C7.79841 2.57043 11.4613 1.05995 15.2855 1ZM14.6643 30.5636L15.8413 31.4L16.8823 30.5684C17.0124 30.4667 17.1471 30.362 17.2857 30.2543C20.5877 27.6875 26.1246 23.3835 26.1246 16.6709C26.1506 13.7593 24.9095 10.9873 22.739 9.10928C20.7159 7.26891 18.1099 6.244 15.4052 6.225C12.8673 6.25166 10.432 7.25545 8.58244 9.03718C7.04908 10.5034 5.225 13.0559 5.225 17.2814C5.225 23.2904 14.6643 30.5636 14.6643 30.5636Z" fill="url(#paint0_linear)"/>
<path d="M46.2031 10.7891V15H44.1719V3.5625C45.526 3.50521 46.3177 3.47656 46.5469 3.47656C48.3542 3.47656 49.6745 3.75521 50.5078 4.3125C51.3464 4.86458 51.7656 5.72917 51.7656 6.90625C51.7656 9.53125 50.2188 10.8438 47.125 10.8438C46.8958 10.8438 46.5885 10.8255 46.2031 10.7891ZM46.2031 5.32031V8.98438C46.5469 9.02083 46.8177 9.03906 47.0156 9.03906C47.9427 9.03906 48.6198 8.88542 49.0469 8.57812C49.474 8.26562 49.6875 7.76042 49.6875 7.0625C49.6875 5.875 48.7318 5.28125 46.8203 5.28125C46.6068 5.28125 46.401 5.29427 46.2031 5.32031ZM52.2284 10.7969C52.2284 9.52083 52.5956 8.48177 53.33 7.67969C54.0696 6.8776 55.0435 6.47656 56.2519 6.47656C57.5227 6.47656 58.5097 6.86198 59.2128 7.63281C59.9159 8.40365 60.2675 9.45833 60.2675 10.7969C60.2675 12.1302 59.9081 13.1901 59.1894 13.9766C58.4758 14.763 57.4967 15.1562 56.2519 15.1562C54.981 15.1562 53.9915 14.7604 53.2831 13.9688C52.58 13.1719 52.2284 12.1146 52.2284 10.7969ZM54.2597 10.7969C54.2597 12.6406 54.9237 13.5625 56.2519 13.5625C56.8612 13.5625 57.343 13.3229 57.6972 12.8438C58.0566 12.3646 58.2362 11.6823 58.2362 10.7969C58.2362 8.97917 57.5748 8.07031 56.2519 8.07031C55.6425 8.07031 55.1581 8.3099 54.7987 8.78906C54.4394 9.26823 54.2597 9.9375 54.2597 10.7969ZM63.4491 3.39062C63.7616 3.39062 64.0272 3.5026 64.2459 3.72656C64.4699 3.94531 64.5819 4.21094 64.5819 4.52344C64.5819 4.83594 64.4699 5.10417 64.2459 5.32812C64.0272 5.54688 63.7616 5.65625 63.4491 5.65625C63.1366 5.65625 62.8683 5.54688 62.6444 5.32812C62.4256 5.10417 62.3162 4.83594 62.3162 4.52344C62.3162 4.21094 62.4256 3.94531 62.6444 3.72656C62.8683 3.5026 63.1366 3.39062 63.4491 3.39062ZM62.4412 15V8.23438H61.3709V6.63281H64.4178V15H62.4412ZM72.1619 15V10.1641C72.1619 9.45052 72.0239 8.92969 71.7478 8.60156C71.477 8.27344 71.0317 8.10938 70.4119 8.10938C70.1254 8.10938 69.8181 8.1901 69.49 8.35156C69.1671 8.51302 68.9145 8.71354 68.7322 8.95312V15H66.7791V6.63281H68.1853L68.5447 7.41406C69.0759 6.78906 69.8598 6.47656 70.8962 6.47656C71.891 6.47656 72.6749 6.77604 73.2478 7.375C73.8259 7.96875 74.115 8.79948 74.115 9.86719V15H72.1619ZM76.6091 8.20312H75.6403V6.63281H76.6091V4.92969L78.5622 4.21094V6.63281H80.8591V8.20312H78.5622V11.8672C78.5622 12.4661 78.6559 12.8906 78.8434 13.1406C79.0309 13.3854 79.3591 13.5078 79.8278 13.5078C80.2966 13.5078 80.7341 13.3802 81.1403 13.125V14.9219C80.6872 15.0781 80.0414 15.1562 79.2028 15.1562C78.3695 15.1562 77.7289 14.9219 77.2809 14.4531C76.833 13.9792 76.6091 13.3073 76.6091 12.4375V8.20312ZM82.5328 11.2812V9.44531H86.6656V11.2812H82.5328ZM94.9956 15L92.2925 10.8828L89.7925 15H87.6753L91.105 9.07031L87.9487 3.54688L90.0269 3.55469L92.3472 7.42188L94.9019 3.55469H97.0269L93.4019 9.10156L97.2066 15H94.9956Z" fill="black"/>
<path d="M46.1279 26H44.1592V19.5664C45.0264 19.5254 45.6343 19.5049 45.9829 19.5049C46.6509 19.5049 47.1724 19.6484 47.5474 19.9355C47.9253 20.2197 48.1143 20.627 48.1143 21.1572C48.1143 21.667 47.8447 22.0698 47.3057 22.3657C48.1055 22.644 48.5054 23.2183 48.5054 24.0884C48.5054 24.6743 48.2842 25.1401 47.8418 25.4858C47.3994 25.8286 46.8281 26 46.1279 26ZM45.3018 20.4805V22.0229C45.4775 22.0347 45.6621 22.0405 45.8555 22.0405C46.5996 22.0405 46.9717 21.7607 46.9717 21.2012C46.9717 20.7061 46.6333 20.4585 45.9565 20.4585C45.7778 20.4585 45.5596 20.4658 45.3018 20.4805ZM45.3018 22.915V25.042C45.5332 25.0625 45.7207 25.0728 45.8643 25.0728C46.374 25.0728 46.7432 24.9863 46.9717 24.8135C47.2031 24.6406 47.3188 24.3535 47.3188 23.9521C47.3188 23.5859 47.2119 23.3193 46.998 23.1523C46.7842 22.9854 46.4106 22.9019 45.8774 22.9019C45.7661 22.9019 45.5742 22.9062 45.3018 22.915ZM49.8326 19.54L50.9312 19.2764V24.5674C50.9312 25.1475 51.104 25.4932 51.4497 25.6045C51.2798 25.9268 50.9898 26.0879 50.5796 26.0879C50.0816 26.0879 49.8326 25.7422 49.8326 25.0508V19.54ZM52.1793 23.6357C52.1793 22.918 52.3858 22.3335 52.7989 21.8823C53.2149 21.4312 53.7628 21.2056 54.4425 21.2056C55.1573 21.2056 55.7125 21.4224 56.108 21.856C56.5035 22.2896 56.7012 22.8828 56.7012 23.6357C56.7012 24.3857 56.4991 24.9819 56.0948 25.4243C55.6934 25.8667 55.1426 26.0879 54.4425 26.0879C53.7276 26.0879 53.171 25.8652 52.7725 25.4199C52.377 24.9717 52.1793 24.377 52.1793 23.6357ZM53.3218 23.6357C53.3218 24.6729 53.6954 25.1914 54.4425 25.1914C54.7852 25.1914 55.0562 25.0566 55.2554 24.7871C55.4576 24.5176 55.5587 24.1338 55.5587 23.6357C55.5587 22.6133 55.1866 22.1021 54.4425 22.1021C54.0997 22.1021 53.8272 22.2368 53.6251 22.5063C53.4229 22.7759 53.3218 23.1523 53.3218 23.6357ZM61.4649 21.667L60.9947 22.4888C60.7369 22.2456 60.3912 22.124 59.9576 22.124C59.5416 22.124 59.212 22.2632 58.9689 22.5415C58.7286 22.8169 58.6085 23.1992 58.6085 23.6885C58.6085 24.6758 59.0787 25.1694 60.0191 25.1694C60.4264 25.1694 60.7853 25.0347 61.0958 24.7651L61.5001 25.6309C61.1808 25.8301 60.901 25.9561 60.6608 26.0088C60.4234 26.0615 60.1422 26.0879 59.817 26.0879C59.0904 26.0879 58.5162 25.877 58.0943 25.4551C57.6754 25.0303 57.4659 24.4414 57.4659 23.6885C57.4659 22.9473 57.6959 22.3481 58.1559 21.8911C58.6158 21.4341 59.2428 21.2056 60.0367 21.2056C60.5846 21.2056 61.0607 21.3594 61.4649 21.667ZM65.5783 26L64.194 23.8687L63.6666 24.4268V26H62.568V19.54L63.6666 19.2764V23.0996L65.2355 21.2935H66.5582L64.9674 23.0776L66.8834 26H65.5783ZM71.3791 21.667L70.9089 22.4888C70.6511 22.2456 70.3054 22.124 69.8718 22.124C69.4557 22.124 69.1262 22.2632 68.883 22.5415C68.6428 22.8169 68.5226 23.1992 68.5226 23.6885C68.5226 24.6758 68.9929 25.1694 69.9333 25.1694C70.3405 25.1694 70.6994 25.0347 71.0099 24.7651L71.4142 25.6309C71.0949 25.8301 70.8151 25.9561 70.5749 26.0088C70.3376 26.0615 70.0563 26.0879 69.7311 26.0879C69.0046 26.0879 68.4304 25.877 68.0085 25.4551C67.5895 25.0303 67.3801 24.4414 67.3801 23.6885C67.3801 22.9473 67.61 22.3481 68.07 21.8911C68.53 21.4341 69.1569 21.2056 69.9509 21.2056C70.4987 21.2056 70.9748 21.3594 71.3791 21.667ZM75.5276 26V23.0996C75.5276 22.8096 75.4367 22.5767 75.2551 22.4009C75.0735 22.2251 74.8361 22.1372 74.5432 22.1372C74.3615 22.1372 74.1784 22.187 73.9939 22.2866C73.8093 22.3833 73.6775 22.4946 73.5984 22.6206V26H72.4821V19.54L73.5984 19.2764V21.5923C73.8825 21.3345 74.2736 21.2056 74.7717 21.2056C75.3606 21.2056 75.8176 21.3696 76.1428 21.6978C76.468 22.0229 76.6306 22.4902 76.6306 23.0996V26H75.5276ZM80.6252 25.5298C80.5256 25.6938 80.3513 25.8286 80.1023 25.9341C79.8562 26.0366 79.5984 26.0879 79.3289 26.0879C78.822 26.0879 78.4236 25.9619 78.1335 25.71C77.8435 25.4551 77.6985 25.0947 77.6985 24.6289C77.6985 24.084 77.9021 23.6577 78.3093 23.3501C78.7195 23.0425 79.301 22.8887 80.054 22.8887C80.1829 22.8887 80.3352 22.9106 80.511 22.9546C80.511 22.4009 80.1609 22.124 79.4607 22.124C79.0476 22.124 78.7019 22.1929 78.4236 22.3306L78.1863 21.478C78.5642 21.2964 79.0139 21.2056 79.5354 21.2056C80.2532 21.2056 80.7791 21.3696 81.113 21.6978C81.447 22.0229 81.614 22.6411 81.614 23.5522V24.5586C81.614 25.1855 81.74 25.5796 81.9919 25.7407C81.9011 25.8989 81.8001 25.9956 81.6887 26.0308C81.5774 26.0688 81.45 26.0879 81.3064 26.0879C81.1482 26.0879 81.0061 26.0293 80.8801 25.9121C80.7542 25.7949 80.6692 25.6675 80.6252 25.5298ZM80.5198 23.7852C80.3323 23.7471 80.1917 23.728 80.0979 23.728C79.2307 23.728 78.7971 24.0122 78.7971 24.5806C78.7971 25.0024 79.0418 25.2134 79.531 25.2134C80.1902 25.2134 80.5198 24.8838 80.5198 24.2246V23.7852ZM83.8553 19.4697C84.031 19.4697 84.1805 19.5327 84.3035 19.6587C84.4295 19.7817 84.4925 19.9312 84.4925 20.1069C84.4925 20.2827 84.4295 20.4336 84.3035 20.5596C84.1805 20.6826 84.031 20.7441 83.8553 20.7441C83.6795 20.7441 83.5286 20.6826 83.4026 20.5596C83.2796 20.4336 83.2181 20.2827 83.2181 20.1069C83.2181 19.9312 83.2796 19.7817 83.4026 19.6587C83.5286 19.5327 83.6795 19.4697 83.8553 19.4697ZM83.2884 26V22.1943H82.6863V21.2935H84.4002V26H83.2884ZM88.9002 26V23.2798C88.9002 22.8784 88.8226 22.5854 88.6673 22.4009C88.515 22.2163 88.2645 22.124 87.9158 22.124C87.7547 22.124 87.5819 22.1694 87.3973 22.2603C87.2156 22.3511 87.0736 22.4639 86.971 22.5986V26H85.8724V21.2935H86.6634L86.8656 21.7329C87.1644 21.3813 87.6053 21.2056 88.1883 21.2056C88.7479 21.2056 89.1888 21.374 89.5111 21.7109C89.8363 22.0449 89.9989 22.5122 89.9989 23.1128V26H88.9002ZM47.7891 36L46.0708 33.3413C45.8979 33.3384 45.6562 33.3281 45.3457 33.3105V36H44.1592V29.562C44.2236 29.562 44.4712 29.5518 44.9019 29.5312C45.3325 29.5078 45.6797 29.4961 45.9434 29.4961C47.5781 29.4961 48.3955 30.1289 48.3955 31.3945C48.3955 31.7754 48.2827 32.1226 48.0571 32.436C47.8315 32.7495 47.5474 32.9707 47.2046 33.0996L49.1074 36H47.7891ZM45.3457 30.5552V32.3438C45.5566 32.3613 45.7178 32.3701 45.8291 32.3701C46.3066 32.3701 46.6553 32.3027 46.875 32.168C47.0977 32.0332 47.209 31.771 47.209 31.3813C47.209 31.0649 47.0903 30.8438 46.853 30.7178C46.6157 30.5918 46.2422 30.5288 45.7324 30.5288C45.6094 30.5288 45.4805 30.5376 45.3457 30.5552ZM53.9854 33.9829H50.6236C50.6441 34.3579 50.773 34.6494 51.0103 34.8574C51.2476 35.0654 51.5669 35.1694 51.9683 35.1694C52.4693 35.1694 52.8501 35.0391 53.1109 34.7783L53.5371 35.6177C53.1504 35.9312 52.5733 36.0879 51.8057 36.0879C51.0879 36.0879 50.5196 35.8784 50.1006 35.4595C49.6846 35.0376 49.4766 34.4502 49.4766 33.6973C49.4766 32.9561 49.7051 32.3555 50.1621 31.8955C50.6221 31.4355 51.1729 31.2056 51.8145 31.2056C52.4971 31.2056 53.045 31.4092 53.458 31.8164C53.8711 32.2236 54.0777 32.7422 54.0777 33.3721C54.0777 33.5068 54.0469 33.7104 53.9854 33.9829ZM50.6631 33.1567H52.9746C52.8985 32.4683 52.5176 32.124 51.8321 32.124C51.2051 32.124 50.8155 32.4683 50.6631 33.1567ZM59.773 36.0879H59.3731L58.0811 33.1963L56.7935 36.0879H56.3892L54.6138 31.2935H55.7696L56.7144 34.1016L57.8658 31.2935H58.2613L59.4522 34.1191L60.4718 31.2935H61.5528L59.773 36.0879ZM65.0157 35.5298C64.9161 35.6938 64.7418 35.8286 64.4928 35.9341C64.2467 36.0366 63.9889 36.0879 63.7193 36.0879C63.2125 36.0879 62.8141 35.9619 62.524 35.71C62.234 35.4551 62.089 35.0947 62.089 34.6289C62.089 34.084 62.2926 33.6577 62.6998 33.3501C63.11 33.0425 63.6915 32.8887 64.4444 32.8887C64.5733 32.8887 64.7257 32.9106 64.9015 32.9546C64.9015 32.4009 64.5514 32.124 63.8512 32.124C63.4381 32.124 63.0924 32.1929 62.8141 32.3306L62.5768 31.478C62.9547 31.2964 63.4044 31.2056 63.9259 31.2056C64.6437 31.2056 65.1695 31.3696 65.5035 31.6978C65.8375 32.0229 66.0045 32.6411 66.0045 33.5522V34.5586C66.0045 35.1855 66.1305 35.5796 66.3824 35.7407C66.2916 35.8989 66.1905 35.9956 66.0792 36.0308C65.9679 36.0688 65.8404 36.0879 65.6969 36.0879C65.5387 36.0879 65.3966 36.0293 65.2706 35.9121C65.1446 35.7949 65.0597 35.6675 65.0157 35.5298ZM64.9103 33.7852C64.7228 33.7471 64.5821 33.728 64.4884 33.728C63.6212 33.728 63.1876 34.0122 63.1876 34.5806C63.1876 35.0024 63.4322 35.2134 63.9215 35.2134C64.5807 35.2134 64.9103 34.8838 64.9103 34.2246V33.7852ZM70.1046 32.3174C69.9083 32.1885 69.693 32.124 69.4586 32.124C69.2038 32.124 68.9767 32.2397 68.7775 32.4712C68.5812 32.7026 68.4831 32.9854 68.4831 33.3193V36H67.3844V31.2935H68.4831V31.7241C68.7907 31.3784 69.1994 31.2056 69.7091 31.2056C70.0841 31.2056 70.3712 31.2627 70.5705 31.377L70.1046 32.3174ZM74.4509 36V35.7144C74.36 35.814 74.2062 35.9019 73.9894 35.978C73.7726 36.0513 73.5485 36.0879 73.3171 36.0879C72.6608 36.0879 72.1437 35.8799 71.7658 35.4639C71.3908 35.0479 71.2033 34.4678 71.2033 33.7236C71.2033 32.9795 71.4186 32.3745 71.8493 31.9087C72.2829 31.4399 72.8249 31.2056 73.4753 31.2056C73.8327 31.2056 74.1579 31.2788 74.4509 31.4253V29.54L75.5495 29.2764V36H74.4509ZM74.4509 32.4185C74.2165 32.231 73.9719 32.1372 73.717 32.1372C73.2775 32.1372 72.9391 32.272 72.7018 32.5415C72.4645 32.8081 72.3459 33.1919 72.3459 33.6929C72.3459 34.6714 72.8176 35.1606 73.7609 35.1606C73.8664 35.1606 73.9953 35.1299 74.1476 35.0684C74.3029 35.0039 74.404 34.9395 74.4509 34.875V32.4185ZM76.5515 35.6968L76.9426 34.8223C77.2707 35.083 77.6413 35.2134 78.0544 35.2134C78.4821 35.2134 78.696 35.061 78.696 34.7563C78.696 34.5776 78.6316 34.4312 78.5027 34.3169C78.3737 34.2026 78.1233 34.0679 77.7512 33.9126C76.9397 33.5757 76.5339 33.104 76.5339 32.4976C76.5339 32.0903 76.6892 31.7739 76.9997 31.5483C77.3103 31.3198 77.7072 31.2056 78.1906 31.2056C78.6799 31.2056 79.1399 31.3154 79.5705 31.5352L79.2541 32.3877C79.0139 32.1826 78.6799 32.0801 78.2522 32.0801C77.8684 32.0801 77.6765 32.2324 77.6765 32.5371C77.6765 32.6572 77.7395 32.7656 77.8654 32.8623C77.9914 32.959 78.261 33.0894 78.674 33.2534C79.0871 33.4146 79.3845 33.6108 79.5661 33.8423C79.7478 34.0737 79.8386 34.3535 79.8386 34.6816C79.8386 35.1182 79.676 35.4624 79.3508 35.7144C79.0285 35.9634 78.5891 36.0879 78.0324 36.0879C77.719 36.0879 77.467 36.0615 77.2766 36.0088C77.0891 35.959 76.8474 35.855 76.5515 35.6968ZM85.0198 33.6313V36H83.8772V29.5664C84.639 29.5342 85.0843 29.5181 85.2132 29.5181C86.2298 29.5181 86.9725 29.6748 87.4412 29.9883C87.9129 30.2988 88.1487 30.7852 88.1487 31.4473C88.1487 32.9238 87.2786 33.6621 85.5384 33.6621C85.4095 33.6621 85.2366 33.6519 85.0198 33.6313ZM85.0198 30.5552V32.6162C85.2132 32.6367 85.3655 32.647 85.4768 32.647C85.9983 32.647 86.3792 32.5605 86.6194 32.3877C86.8597 32.2119 86.9798 31.9277 86.9798 31.5352C86.9798 30.8672 86.4422 30.5332 85.367 30.5332C85.2469 30.5332 85.1311 30.5405 85.0198 30.5552ZM92.0028 32.3174C91.8065 32.1885 91.5911 32.124 91.3568 32.124C91.1019 32.124 90.8748 32.2397 90.6756 32.4712C90.4793 32.7026 90.3812 32.9854 90.3812 33.3193V36H89.2825V31.2935H90.3812V31.7241C90.6888 31.3784 91.0975 31.2056 91.6073 31.2056C91.9823 31.2056 92.2694 31.2627 92.4686 31.377L92.0028 32.3174ZM93.0135 33.6357C93.0135 32.918 93.2201 32.3335 93.6332 31.8823C94.0492 31.4312 94.597 31.2056 95.2767 31.2056C95.9916 31.2056 96.5467 31.4224 96.9422 31.856C97.3378 32.2896 97.5355 32.8828 97.5355 33.6357C97.5355 34.3857 97.3334 34.9819 96.9291 35.4243C96.5277 35.8667 95.9769 36.0879 95.2767 36.0879C94.5619 36.0879 94.0052 35.8652 93.6068 35.4199C93.2113 34.9717 93.0135 34.377 93.0135 33.6357ZM94.1561 33.6357C94.1561 34.6729 94.5296 35.1914 95.2767 35.1914C95.6195 35.1914 95.8905 35.0566 96.0897 34.7871C96.2919 34.5176 96.3929 34.1338 96.3929 33.6357C96.3929 32.6133 96.0209 32.1021 95.2767 32.1021C94.9339 32.1021 94.6615 32.2368 94.4593 32.5063C94.2572 32.7759 94.1561 33.1523 94.1561 33.6357ZM98.2562 37.2085L98.9506 36.3516C99.3344 36.7031 99.7621 36.8789 100.234 36.8789C100.55 36.8789 100.811 36.832 101.016 36.7383C101.221 36.6445 101.324 36.5156 101.324 36.3516C101.324 36.0732 101.097 35.9341 100.642 35.9341C100.519 35.9341 100.336 35.9487 100.093 35.978C99.85 36.0073 99.6669 36.022 99.5438 36.022C98.788 36.022 98.4101 35.751 98.4101 35.209C98.4101 35.0537 98.473 34.9014 98.599 34.752C98.725 34.6025 98.8715 34.4927 99.0385 34.4224C98.5023 34.0737 98.2343 33.5801 98.2343 32.9414C98.2343 32.4375 98.4188 32.0215 98.788 31.6934C99.1571 31.3623 99.6112 31.1968 100.15 31.1968C100.572 31.1968 100.925 31.2759 101.209 31.4341L101.64 30.9331L102.4 31.623L101.877 32.0054C102.059 32.2808 102.15 32.606 102.15 32.981C102.15 33.5171 101.986 33.9463 101.658 34.2686C101.332 34.5879 100.921 34.7476 100.423 34.7476C100.344 34.7476 100.238 34.7402 100.106 34.7256L99.9262 34.6992C99.9057 34.6992 99.8266 34.7314 99.6889 34.7959C99.5541 34.8574 99.4867 34.9219 99.4867 34.9893C99.4867 35.1064 99.5878 35.165 99.7899 35.165C99.8808 35.165 100.033 35.1431 100.247 35.0991C100.461 35.0552 100.644 35.0332 100.796 35.0332C101.866 35.0332 102.4 35.4624 102.4 36.3208C102.4 36.7954 102.186 37.1675 101.759 37.437C101.331 37.7095 100.815 37.8457 100.212 37.8457C99.4911 37.8457 98.8393 37.6333 98.2562 37.2085ZM99.3549 32.9458C99.3549 33.2241 99.431 33.4482 99.5834 33.6182C99.7387 33.7852 99.9467 33.8687 100.207 33.8687C100.468 33.8687 100.669 33.7866 100.809 33.6226C100.95 33.4585 101.02 33.2329 101.02 32.9458C101.02 32.7085 100.944 32.5078 100.792 32.3438C100.642 32.1797 100.448 32.0977 100.207 32.0977C99.9555 32.0977 99.7504 32.1768 99.5922 32.335C99.434 32.4932 99.3549 32.6968 99.3549 32.9458ZM106.035 32.3174C105.838 32.1885 105.623 32.124 105.389 32.124C105.134 32.124 104.907 32.2397 104.707 32.4712C104.511 32.7026 104.413 32.9854 104.413 33.3193V36H103.314V31.2935H104.413V31.7241C104.721 31.3784 105.129 31.2056 105.639 31.2056C106.014 31.2056 106.301 31.2627 106.5 31.377L106.035 32.3174ZM109.691 35.5298C109.591 35.6938 109.417 35.8286 109.168 35.9341C108.922 36.0366 108.664 36.0879 108.395 36.0879C107.888 36.0879 107.489 35.9619 107.199 35.71C106.909 35.4551 106.764 35.0947 106.764 34.6289C106.764 34.084 106.968 33.6577 107.375 33.3501C107.785 33.0425 108.367 32.8887 109.12 32.8887C109.249 32.8887 109.401 32.9106 109.577 32.9546C109.577 32.4009 109.227 32.124 108.526 32.124C108.113 32.124 107.768 32.1929 107.489 32.3306L107.252 31.478C107.63 31.2964 108.08 31.2056 108.601 31.2056C109.319 31.2056 109.845 31.3696 110.179 31.6978C110.513 32.0229 110.68 32.6411 110.68 33.5522V34.5586C110.68 35.1855 110.806 35.5796 111.058 35.7407C110.967 35.8989 110.866 35.9956 110.754 36.0308C110.643 36.0688 110.516 36.0879 110.372 36.0879C110.214 36.0879 110.072 36.0293 109.946 35.9121C109.82 35.7949 109.735 35.6675 109.691 35.5298ZM109.585 33.7852C109.398 33.7471 109.257 33.728 109.164 33.728C108.296 33.728 107.863 34.0122 107.863 34.5806C107.863 35.0024 108.107 35.2134 108.597 35.2134C109.256 35.2134 109.585 34.8838 109.585 34.2246V33.7852ZM117.509 36V33.0513C117.509 32.4331 117.232 32.124 116.678 32.124C116.514 32.124 116.356 32.1724 116.204 32.269C116.051 32.3657 115.944 32.4771 115.883 32.603V36H114.784V32.8799C114.784 32.6484 114.712 32.4653 114.569 32.3306C114.425 32.1929 114.223 32.124 113.962 32.124C113.825 32.124 113.674 32.1753 113.51 32.2778C113.349 32.3804 113.231 32.4932 113.158 32.6162V36H112.06V31.2935H112.815L113.04 31.7065C113.344 31.3726 113.738 31.2056 114.222 31.2056C114.846 31.2056 115.316 31.3755 115.632 31.7153C115.77 31.5601 115.962 31.437 116.208 31.3462C116.454 31.2524 116.7 31.2056 116.946 31.2056C117.471 31.2056 117.878 31.3564 118.168 31.6582C118.461 31.957 118.607 32.3687 118.607 32.8931V36H117.509Z" fill="#3D3D3D"/>
<defs>
<linearGradient id="paint0_linear" x1="42.8079" y1="4.26988" x2="0.195045" y2="-11.9376" gradientUnits="userSpaceOnUse">
<stop offset="0.11" stop-color="#E6C73E"/>
<stop offset="0.24" stop-color="#C94B36"/>
<stop offset="0.26" stop-color="#C54A41"/>
<stop offset="0.32" stop-color="#B64669"/>
<stop offset="0.36" stop-color="#AC4481"/>
<stop offset="0.39" stop-color="#A9438A"/>
<stop offset="0.67" stop-color="#5EA4B7"/>
<stop offset="0.89" stop-color="#5EA362"/>
<stop offset="1" stop-color="#5EA4B7"/>
</linearGradient>
</defs>
</svg>
